<svg xmlns="http://www.w3.org/2000/svg" viewBox="495.974 466.308 1030.046 1089.372">
  <path d="M1100.54,534.178C1147.73,521.752 1189.81,515.377 1226.18,513.049C1433.71,499.769 1482.14,633.338 1472.99,660.741L1472.88,661.058C1472.88,661.058 1425.5,533.519 1225.62,547.078C1183.74,549.919 1136.53,556.855 1083.4,570.903L1081.12,571.51C940.702,609.059 759.292,696.305 527.015,888.406L525.126,889.97C753.896,672.325 950.825,574.079 1098.25,534.784L1100.54,534.178Z
M1424.46,806.104C1397.58,887.365 1328.56,987.976 1263.55,1048.95C1229.8,1080.61 1155.13,1158.84 982.677,1225.85C950.426,1237.3 930.71,1244.44 925.704,1246.26L924.436,1246.72L925.438,1246.73C1011.28,1260.13 1139.18,1191.21 1192.44,1156.51C1340.71,1059.92 1719.69,725.96 1526.02,531.086C1461.13,465.795 1356.47,441.567 1132.39,466.308C1529.97,355.256 2009.78,598.137 1464.49,1109.59C1137.01,1416.75 824.7,1472.22 694.714,1426.76C663.854,1415.96 594.297,1393.72 586.098,1309.51C583.718,1291.02 584.46,1269.75 589.526,1245.3C591.479,1235.87 594.178,1226.03 597.533,1215.89C624.416,1134.62 693.434,1034.01 758.437,973.044C792.194,941.382 866.86,863.148 1039.31,796.142C1071.56,784.695 1091.28,777.549 1096.29,775.73L1097.55,775.269L1096.55,775.265C1010.71,761.858 882.814,830.775 829.547,865.479C681.284,962.073 302.3,1296.03 495.974,1490.9C560.862,1556.19 665.516,1580.42 889.595,1555.68C492.022,1666.73 12.206,1423.85 557.502,912.396C884.979,605.241 1197.29,549.766 1327.28,595.233C1358.14,606.027 1427.69,628.274 1435.89,712.478C1438.27,730.969 1437.53,752.236 1432.46,776.692C1430.51,786.119 1427.81,795.963 1424.46,806.104ZM957.536,891.741C974.629,891.741 988.486,905.598 988.486,922.691L988.486,962.084C988.486,974.515 998.563,984.592 1010.99,984.592C1011,984.592 1011,984.592 1011,984.592C1023.43,984.592 1033.5,974.515 1033.5,962.084C1033.5,950.254 1033.5,935.575 1033.5,922.691C1033.5,905.598 1047.36,891.741 1064.45,891.741L1064.45,891.741C1081.55,891.741 1095.4,905.598 1095.4,922.691C1095.4,968.425 1095.4,1053.57 1095.4,1099.3C1095.4,1116.39 1081.55,1130.25 1064.45,1130.25C1064.45,1130.25 1064.45,1130.25 1064.45,1130.25C1056.25,1130.25 1048.37,1126.99 1042.57,1121.18C1036.77,1115.38 1033.5,1107.51 1033.5,1099.3L1033.5,1083.35C1033.5,1073.57 1029.62,1064.2 1022.71,1057.29C1015.8,1050.38 1006.43,1046.49 996.65,1046.49L963.439,1046.49C953.665,1046.49 944.291,1042.61 937.379,1035.7C930.468,1028.79 926.585,1019.41 926.585,1009.64C926.585,983.118 926.585,947.75 926.585,922.691C926.585,914.482 929.846,906.61 935.65,900.806C941.454,895.002 949.326,891.741 957.535,891.741C957.535,891.741 957.536,891.741 957.536,891.741Z
M1496.86,1132.02C1193.41,1420.71 945.988,1499.33 795.808,1508.94C587.468,1522.27 539.478,1387.6 549.111,1360.93C549.111,1360.93 596.493,1488.47 796.374,1474.91C949.526,1464.52 1174.21,1399.34 1496.86,1132.02Z" fill="#fff"/>
</svg>